<svg width="27" height="25" viewBox="0 0 27 25" fill="none" xmlns="http://www.w3.org/2000/svg">
<g filter="url(#filter0_d_13_3)">
<path d="M18.115 10.405C18.364 11.134 18.5 11.911 18.5 12.721C18.5 16.231 16 19.1581 12.689 19.8151V24.9051L21.602 19.7591C22.172 19.4301 22.524 18.821 22.524 18.156V7.85605L18.115 10.405ZM5.843 7.94305C6.52016 7.17276 7.35373 6.55564 8.28815 6.13283C9.22257 5.71002 10.2364 5.49124 11.262 5.49105C13.418 5.49105 15.358 6.44505 16.68 7.94305L21.09 5.39505L12.184 0.248049C11.9021 0.0864749 11.5829 0.00146484 11.258 0.00146484C10.9331 0.00146484 10.6139 0.0864749 10.332 0.248049L1.42 5.39505L5.828 7.94305H5.843ZM4.024 12.721C4.024 11.911 4.16 11.134 4.409 10.405L0 7.85505V18.1481C0 18.8051 0.353 19.422 0.922 19.751L9.835 24.897V19.807C8.19526 19.4794 6.71986 18.5933 5.66024 17.2998C4.60063 16.0062 4.02236 14.3852 4.024 12.713V12.721ZM14.885 12.72C14.8855 13.196 14.7922 13.6674 14.6103 14.1073C14.4284 14.5471 14.1616 14.9468 13.8251 15.2834C13.4886 15.62 13.089 15.887 12.6492 16.069C12.2094 16.251 11.738 16.3444 11.262 16.344C10.7861 16.3444 10.3148 16.251 9.87507 16.0691C9.43533 15.8871 9.03578 15.6203 8.69927 15.2838C8.36277 14.9473 8.09591 14.5477 7.91398 14.108C7.73205 13.6682 7.63861 13.1969 7.639 12.721C7.63861 12.2452 7.73205 11.7739 7.91398 11.3341C8.09591 10.8944 8.36277 10.4948 8.69927 10.1583C9.03578 9.82182 9.43533 9.55496 9.87507 9.37303C10.3148 9.1911 10.7861 9.09765 11.262 9.09805C11.7379 9.09765 12.2092 9.1911 12.6489 9.37303C13.0887 9.55496 13.4882 9.82182 13.8247 10.1583C14.1612 10.4948 14.4281 10.8944 14.61 11.3341C14.792 11.7739 14.8854 12.2442 14.885 12.72Z" fill="white"/>
</g>
<defs>
<filter id="filter0_d_13_3" x="-4" y="0.00146484" width="30.524" height="32.9036" filterUnits="userSpaceOnUse" color-interpolation-filters="sRGB">
<feFlood flood-opacity="0" result="BackgroundImageFix"/>
<feColorMatrix in="SourceAlpha" type="matrix" values="0 0 0 0 0 0 0 0 0 0 0 0 0 0 0 0 0 0 127 0" result="hardAlpha"/>
<feOffset dy="4"/>
<feGaussianBlur stdDeviation="2"/>
<feComposite in2="hardAlpha" operator="out"/>
<feColorMatrix type="matrix" values="0 0 0 0 0 0 0 0 0 0 0 0 0 0 0 0 0 0 0.25 0"/>
<feBlend mode="normal" in2="BackgroundImageFix" result="effect1_dropShadow_13_3"/>
<feBlend mode="normal" in="SourceGraphic" in2="effect1_dropShadow_13_3" result="shape"/>
</filter>
</defs>
</svg>
