<svg width="37" height="40" viewBox="0 0 37 40" fill="none" xmlns="http://www.w3.org/2000/svg">
<path d="M19.3313 24.8078C15.318 23.5478 11.062 25.7318 9.7913 29.7011C8.51797 33.6744 10.7246 37.8878 14.7393 39.1451C18.7513 40.4064 23.0086 38.2198 24.2793 34.2491C25.5513 30.2784 23.3433 26.0651 19.3313 24.8078ZM26.2966 10.2118C18.506 13.0491 17.606 12.6384 14.738 4.92909C13.2833 1.01976 8.92997 -0.969577 4.97797 0.466423C1.02863 1.90642 -0.980696 6.21442 0.472637 10.1238C1.9273 14.0331 6.28065 16.0224 10.23 14.5824C18.0206 11.7451 18.9233 12.1584 21.79 19.8691C23.2433 23.7784 27.5966 25.7678 31.546 24.3278C35.498 22.8918 37.506 18.5811 36.0526 14.6718C34.5993 10.7611 30.246 8.77176 26.2966 10.2118Z" fill="white"/>
</svg>
